%TF.GenerationSoftware,KiCad,Pcbnew,9.0.6*%
%TF.CreationDate,2026-06-20T19:39:24+05:30*%
%TF.ProjectId,Mechanical LP Keyboard,4d656368-616e-4696-9361-6c204c50204b,rev?*%
%TF.SameCoordinates,Original*%
%TF.FileFunction,Soldermask,Top*%
%TF.FilePolarity,Negative*%
%FSLAX46Y46*%
G04 Gerber Fmt 4.6, Leading zero omitted, Abs format (unit mm)*
G04 Created by KiCad (PCBNEW 9.0.6) date 2026-06-20 19:39:24*
%MOMM*%
%LPD*%
G01*
G04 APERTURE LIST*
G04 Aperture macros list*
%AMRoundRect*
0 Rectangle with rounded corners*
0 $1 Rounding radius*
0 $2 $3 $4 $5 $6 $7 $8 $9 X,Y pos of 4 corners*
0 Add a 4 corners polygon primitive as box body*
4,1,4,$2,$3,$4,$5,$6,$7,$8,$9,$2,$3,0*
0 Add four circle primitives for the rounded corners*
1,1,$1+$1,$2,$3*
1,1,$1+$1,$4,$5*
1,1,$1+$1,$6,$7*
1,1,$1+$1,$8,$9*
0 Add four rect primitives between the rounded corners*
20,1,$1+$1,$2,$3,$4,$5,0*
20,1,$1+$1,$4,$5,$6,$7,0*
20,1,$1+$1,$6,$7,$8,$9,0*
20,1,$1+$1,$8,$9,$2,$3,0*%
%AMFreePoly0*
4,1,37,0.800000,0.796148,0.878414,0.796148,1.032228,0.765552,1.177117,0.705537,1.307515,0.618408,1.418408,0.507515,1.505537,0.377117,1.565552,0.232228,1.596148,0.078414,1.596148,-0.078414,1.565552,-0.232228,1.505537,-0.377117,1.418408,-0.507515,1.307515,-0.618408,1.177117,-0.705537,1.032228,-0.765552,0.878414,-0.796148,0.800000,-0.796148,0.800000,-0.800000,-1.400000,-0.800000,
-1.403843,-0.796157,-1.439018,-0.796157,-1.511114,-0.766294,-1.566294,-0.711114,-1.596157,-0.639018,-1.596157,-0.603843,-1.600000,-0.600000,-1.600000,0.600000,-1.596157,0.603843,-1.596157,0.639018,-1.566294,0.711114,-1.511114,0.766294,-1.439018,0.796157,-1.403843,0.796157,-1.400000,0.800000,0.800000,0.800000,0.800000,0.796148,0.800000,0.796148,$1*%
%AMFreePoly1*
4,1,37,1.403843,0.796157,1.439018,0.796157,1.511114,0.766294,1.566294,0.711114,1.596157,0.639018,1.596157,0.603843,1.600000,0.600000,1.600000,-0.600000,1.596157,-0.603843,1.596157,-0.639018,1.566294,-0.711114,1.511114,-0.766294,1.439018,-0.796157,1.403843,-0.796157,1.400000,-0.800000,-0.800000,-0.800000,-0.800000,-0.796148,-0.878414,-0.796148,-1.032228,-0.765552,-1.177117,-0.705537,
-1.307515,-0.618408,-1.418408,-0.507515,-1.505537,-0.377117,-1.565552,-0.232228,-1.596148,-0.078414,-1.596148,0.078414,-1.565552,0.232228,-1.505537,0.377117,-1.418408,0.507515,-1.307515,0.618408,-1.177117,0.705537,-1.032228,0.765552,-0.878414,0.796148,-0.800000,0.796148,-0.800000,0.800000,1.400000,0.800000,1.403843,0.796157,1.403843,0.796157,$1*%
%AMFreePoly2*
4,1,37,0.603843,0.796157,0.639018,0.796157,0.711114,0.766294,0.766294,0.711114,0.796157,0.639018,0.796157,0.603843,0.800000,0.600000,0.800000,-0.600000,0.796157,-0.603843,0.796157,-0.639018,0.766294,-0.711114,0.711114,-0.766294,0.639018,-0.796157,0.603843,-0.796157,0.600000,-0.800000,0.000000,-0.800000,0.000000,-0.796148,-0.078414,-0.796148,-0.232228,-0.765552,-0.377117,-0.705537,
-0.507515,-0.618408,-0.618408,-0.507515,-0.705537,-0.377117,-0.765552,-0.232228,-0.796148,-0.078414,-0.796148,0.078414,-0.765552,0.232228,-0.705537,0.377117,-0.618408,0.507515,-0.507515,0.618408,-0.377117,0.705537,-0.232228,0.765552,-0.078414,0.796148,0.000000,0.796148,0.000000,0.800000,0.600000,0.800000,0.603843,0.796157,0.603843,0.796157,$1*%
%AMFreePoly3*
4,1,37,0.000000,0.796148,0.078414,0.796148,0.232228,0.765552,0.377117,0.705537,0.507515,0.618408,0.618408,0.507515,0.705537,0.377117,0.765552,0.232228,0.796148,0.078414,0.796148,-0.078414,0.765552,-0.232228,0.705537,-0.377117,0.618408,-0.507515,0.507515,-0.618408,0.377117,-0.705537,0.232228,-0.765552,0.078414,-0.796148,0.000000,-0.796148,0.000000,-0.800000,-0.600000,-0.800000,
-0.603843,-0.796157,-0.639018,-0.796157,-0.711114,-0.766294,-0.766294,-0.711114,-0.796157,-0.639018,-0.796157,-0.603843,-0.800000,-0.600000,-0.800000,0.600000,-0.796157,0.603843,-0.796157,0.639018,-0.766294,0.711114,-0.711114,0.766294,-0.639018,0.796157,-0.603843,0.796157,-0.600000,0.800000,0.000000,0.800000,0.000000,0.796148,0.000000,0.796148,$1*%
G04 Aperture macros list end*
%ADD10RoundRect,0.250000X-0.550000X0.550000X-0.550000X-0.550000X0.550000X-0.550000X0.550000X0.550000X0*%
%ADD11C,1.600000*%
%ADD12RoundRect,0.237500X0.300000X0.237500X-0.300000X0.237500X-0.300000X-0.237500X0.300000X-0.237500X0*%
%ADD13C,2.200000*%
%ADD14C,1.850000*%
%ADD15FreePoly0,0.000000*%
%ADD16RoundRect,0.200000X-0.600000X-0.600000X0.600000X-0.600000X0.600000X0.600000X-0.600000X0.600000X0*%
%ADD17RoundRect,0.800000X-0.800000X-0.000010X0.800000X-0.000010X0.800000X0.000010X-0.800000X0.000010X0*%
%ADD18FreePoly1,0.000000*%
%ADD19FreePoly2,0.000000*%
%ADD20FreePoly3,0.000000*%
%ADD21C,3.200000*%
%ADD22RoundRect,0.102000X-0.754000X0.754000X-0.754000X-0.754000X0.754000X-0.754000X0.754000X0.754000X0*%
%ADD23C,1.712000*%
%ADD24C,3.204000*%
%ADD25R,2.000000X2.000000*%
%ADD26C,2.000000*%
%ADD27C,1.701800*%
%ADD28C,3.000000*%
%ADD29C,3.987800*%
%ADD30C,3.048000*%
G04 APERTURE END LIST*
D10*
%TO.C,D82*%
X151600000Y-142050000D03*
D11*
X151600000Y-149670000D03*
%TD*%
D12*
%TO.C,C77*%
X168450000Y-135050000D03*
X166725000Y-135050000D03*
%TD*%
%TO.C,C11*%
X254650000Y-59100000D03*
X252925000Y-59100000D03*
%TD*%
%TO.C,C18*%
X391650000Y-60375000D03*
X389925000Y-60375000D03*
%TD*%
D10*
%TO.C,D39*%
X143850000Y-83950000D03*
D11*
X143850000Y-91570000D03*
%TD*%
D12*
%TO.C,C39*%
X111575000Y-96875000D03*
X109850000Y-96875000D03*
%TD*%
%TO.C,C7*%
X178200000Y-59100000D03*
X176475000Y-59100000D03*
%TD*%
D10*
%TO.C,D20*%
X96400000Y-65350000D03*
D11*
X96400000Y-72970000D03*
%TD*%
D10*
%TO.C,D40*%
X162900000Y-84100000D03*
D11*
X162900000Y-91720000D03*
%TD*%
D12*
%TO.C,C73*%
X75975000Y-135160000D03*
X74250000Y-135160000D03*
%TD*%
D10*
%TO.C,D3*%
X115450000Y-46600000D03*
D11*
X115450000Y-54220000D03*
%TD*%
D10*
%TO.C,D23*%
X153350000Y-65550000D03*
D11*
X153350000Y-73170000D03*
%TD*%
D10*
%TO.C,D46*%
X277150000Y-84600000D03*
D11*
X277150000Y-92220000D03*
%TD*%
D12*
%TO.C,C19*%
X392462500Y-77725000D03*
X390737500Y-77725000D03*
%TD*%
%TO.C,C62*%
X175700000Y-116025000D03*
X173975000Y-116025000D03*
%TD*%
%TO.C,C32*%
X123500000Y-77700000D03*
X121775000Y-77700000D03*
%TD*%
D10*
%TO.C,D76*%
X292100000Y-122800000D03*
D11*
X292100000Y-130420000D03*
%TD*%
D12*
%TO.C,C85*%
X374050000Y-135150000D03*
X372325000Y-135150000D03*
%TD*%
D10*
%TO.C,D86*%
X342350000Y-142550000D03*
D11*
X342350000Y-150170000D03*
%TD*%
D12*
%TO.C,C36*%
X66250000Y-154100000D03*
X64525000Y-154100000D03*
%TD*%
%TO.C,C25*%
X256650000Y-77750000D03*
X254925000Y-77750000D03*
%TD*%
%TO.C,C14*%
X311700000Y-58975000D03*
X309975000Y-58975000D03*
%TD*%
D10*
%TO.C,D13*%
X305900000Y-47505000D03*
D11*
X305900000Y-55125000D03*
%TD*%
D12*
%TO.C,C33*%
X101925000Y-77910000D03*
X100200000Y-77910000D03*
%TD*%
D10*
%TO.C,D27*%
X229850000Y-65750000D03*
D11*
X229850000Y-73370000D03*
%TD*%
D10*
%TO.C,D87*%
X387150000Y-123500000D03*
D11*
X387150000Y-131120000D03*
%TD*%
D10*
%TO.C,D63*%
X282150000Y-103350000D03*
D11*
X282150000Y-110970000D03*
%TD*%
D10*
%TO.C,D68*%
X139150000Y-122780000D03*
D11*
X139150000Y-130400000D03*
%TD*%
D10*
%TO.C,D6*%
X172600000Y-46950000D03*
D11*
X172600000Y-54570000D03*
%TD*%
D10*
%TO.C,D51*%
X405550000Y-84850000D03*
D11*
X405550000Y-92470000D03*
%TD*%
D10*
%TO.C,D8*%
X210700000Y-47100000D03*
D11*
X210700000Y-54720000D03*
%TD*%
D10*
%TO.C,D10*%
X248700000Y-47390000D03*
D11*
X248700000Y-55010000D03*
%TD*%
D12*
%TO.C,C5*%
X140250000Y-59000000D03*
X138525000Y-59000000D03*
%TD*%
D10*
%TO.C,D88*%
X386650000Y-45980000D03*
D11*
X386650000Y-53600000D03*
%TD*%
D10*
%TO.C,D71*%
X196300000Y-122900000D03*
D11*
X196300000Y-130520000D03*
%TD*%
D13*
%TO.C,A1*%
X427235000Y-39880000D03*
D14*
X427535000Y-42910000D03*
X432385000Y-42910000D03*
D13*
X432685000Y-39880000D03*
D15*
X420270000Y-39750000D03*
D16*
X421070000Y-39750000D03*
D17*
X420270000Y-42290000D03*
D11*
X421070000Y-42290000D03*
D18*
X420270000Y-44830000D03*
D19*
X421070000Y-44830000D03*
D17*
X420270000Y-47370000D03*
D11*
X421070000Y-47370000D03*
D17*
X420270000Y-49910000D03*
D11*
X421070000Y-49910000D03*
D17*
X420270000Y-52450000D03*
D11*
X421070000Y-52450000D03*
D17*
X420270000Y-54990000D03*
D11*
X421070000Y-54990000D03*
D18*
X420270000Y-57530000D03*
D19*
X421070000Y-57530000D03*
D17*
X420270000Y-60070000D03*
D11*
X421070000Y-60070000D03*
D17*
X420270000Y-62610000D03*
D11*
X421070000Y-62610000D03*
D17*
X420270000Y-65150000D03*
D11*
X421070000Y-65150000D03*
D17*
X420270000Y-67690000D03*
D11*
X421070000Y-67690000D03*
D18*
X420270000Y-70230000D03*
D19*
X421070000Y-70230000D03*
D17*
X420270000Y-72770000D03*
D11*
X421070000Y-72770000D03*
D17*
X420270000Y-75310000D03*
D11*
X421070000Y-75310000D03*
D17*
X420270000Y-77850000D03*
D11*
X421070000Y-77850000D03*
D17*
X420270000Y-80390000D03*
D11*
X421070000Y-80390000D03*
D18*
X420270000Y-82930000D03*
D19*
X421070000Y-82930000D03*
D17*
X420270000Y-85470000D03*
D11*
X421070000Y-85470000D03*
D17*
X420270000Y-88010000D03*
D11*
X421070000Y-88010000D03*
X438850000Y-88010000D03*
D17*
X439650000Y-88010000D03*
D11*
X438850000Y-85470000D03*
D17*
X439650000Y-85470000D03*
D20*
X438850000Y-82930000D03*
D15*
X439650000Y-82930000D03*
D11*
X438850000Y-80390000D03*
D17*
X439650000Y-80390000D03*
D11*
X438850000Y-77850000D03*
D17*
X439650000Y-77850000D03*
D11*
X438850000Y-75310000D03*
D17*
X439650000Y-75310000D03*
D11*
X438850000Y-72770000D03*
D17*
X439650000Y-72770000D03*
D20*
X438850000Y-70230000D03*
D15*
X439650000Y-70230000D03*
D11*
X438850000Y-67690000D03*
D17*
X439650000Y-67690000D03*
D11*
X438850000Y-65150000D03*
D17*
X439650000Y-65150000D03*
D11*
X438850000Y-62610000D03*
D17*
X439650000Y-62610000D03*
D11*
X438850000Y-60070000D03*
D17*
X439650000Y-60070000D03*
D20*
X438850000Y-57530000D03*
D15*
X439650000Y-57530000D03*
D11*
X438850000Y-54990000D03*
D17*
X439650000Y-54990000D03*
D11*
X438850000Y-52450000D03*
D17*
X439650000Y-52450000D03*
D11*
X438850000Y-49910000D03*
D17*
X439650000Y-49910000D03*
D11*
X438850000Y-47370000D03*
D17*
X439650000Y-47370000D03*
D20*
X438850000Y-44830000D03*
D15*
X439650000Y-44830000D03*
D11*
X438850000Y-42290000D03*
D17*
X439650000Y-42290000D03*
D11*
X438850000Y-39750000D03*
D17*
X439650000Y-39750000D03*
%TD*%
D12*
%TO.C,C20*%
X373475000Y-78000000D03*
X371750000Y-78000000D03*
%TD*%
%TO.C,C38*%
X92550000Y-96910000D03*
X90825000Y-96910000D03*
%TD*%
D10*
%TO.C,D64*%
X301500000Y-103500000D03*
D11*
X301500000Y-111120000D03*
%TD*%
D10*
%TO.C,D48*%
X316300000Y-84700000D03*
D11*
X316300000Y-92320000D03*
%TD*%
D10*
%TO.C,D89*%
X344550000Y-46305000D03*
D11*
X344550000Y-53925000D03*
%TD*%
D12*
%TO.C,C67*%
X72675000Y-115925000D03*
X70950000Y-115925000D03*
%TD*%
%TO.C,C97*%
X209400000Y-153925000D03*
X207675000Y-153925000D03*
%TD*%
%TO.C,C78*%
X183375000Y-135025000D03*
X181650000Y-135025000D03*
%TD*%
%TO.C,C28*%
X199950000Y-77950000D03*
X198225000Y-77950000D03*
%TD*%
%TO.C,C66*%
X97300000Y-115775000D03*
X95575000Y-115775000D03*
%TD*%
D10*
%TO.C,D75*%
X272700000Y-123050000D03*
D11*
X272700000Y-130670000D03*
%TD*%
D10*
%TO.C,D9*%
X229550000Y-47190000D03*
D11*
X229550000Y-54810000D03*
%TD*%
D12*
%TO.C,C29*%
X180900000Y-77900000D03*
X179175000Y-77900000D03*
%TD*%
D10*
%TO.C,D15*%
X367500000Y-85300000D03*
D11*
X367500000Y-92920000D03*
%TD*%
D10*
%TO.C,D35*%
X442200000Y-140430000D03*
D11*
X442200000Y-148050000D03*
%TD*%
D21*
%TO.C,H2*%
X249100000Y-146300000D03*
%TD*%
D12*
%TO.C,C44*%
X206800000Y-96950000D03*
X205075000Y-96950000D03*
%TD*%
D21*
%TO.C,H4*%
X60850000Y-90650000D03*
%TD*%
D10*
%TO.C,D37*%
X105900000Y-83800000D03*
D11*
X105900000Y-91420000D03*
%TD*%
D10*
%TO.C,D38*%
X124700000Y-83930000D03*
D11*
X124700000Y-91550000D03*
%TD*%
D10*
%TO.C,D54*%
X110550000Y-103700000D03*
D11*
X110550000Y-111320000D03*
%TD*%
D21*
%TO.C,H1*%
X179500000Y-146450000D03*
%TD*%
D12*
%TO.C,C98*%
X138075000Y-153925000D03*
X136350000Y-153925000D03*
%TD*%
%TO.C,C75*%
X126150000Y-134710000D03*
X124425000Y-134710000D03*
%TD*%
%TO.C,C79*%
X202925000Y-135075000D03*
X201200000Y-135075000D03*
%TD*%
%TO.C,C74*%
X106950000Y-134900000D03*
X105225000Y-134900000D03*
%TD*%
%TO.C,C2*%
X82887500Y-58925000D03*
X81162500Y-58925000D03*
%TD*%
D10*
%TO.C,D42*%
X201000000Y-84300000D03*
D11*
X201000000Y-91920000D03*
%TD*%
D10*
%TO.C,D66*%
X98600000Y-121850000D03*
D11*
X98600000Y-129470000D03*
%TD*%
D12*
%TO.C,C100*%
X90250000Y-153875000D03*
X88525000Y-153875000D03*
%TD*%
D10*
%TO.C,D18*%
X407700000Y-47700000D03*
D11*
X407700000Y-55320000D03*
%TD*%
D12*
%TO.C,C34*%
X83000000Y-77750000D03*
X81275000Y-77750000D03*
%TD*%
%TO.C,C101*%
X426225000Y-151900000D03*
X424500000Y-151900000D03*
%TD*%
D10*
%TO.C,D2*%
X96300000Y-46790000D03*
D11*
X96300000Y-54410000D03*
%TD*%
D10*
%TO.C,D32*%
X343950000Y-65650000D03*
D11*
X343950000Y-73270000D03*
%TD*%
D12*
%TO.C,C94*%
X328375000Y-153900000D03*
X326650000Y-153900000D03*
%TD*%
%TO.C,C50*%
X326175000Y-97150000D03*
X324450000Y-97150000D03*
%TD*%
D10*
%TO.C,D47*%
X296400000Y-84750000D03*
D11*
X296400000Y-92370000D03*
%TD*%
D10*
%TO.C,D44*%
X239300000Y-84450000D03*
D11*
X239300000Y-92070000D03*
%TD*%
D10*
%TO.C,D33*%
X386250000Y-142500000D03*
D11*
X386250000Y-150120000D03*
%TD*%
D12*
%TO.C,C47*%
X264075000Y-97075000D03*
X262350000Y-97075000D03*
%TD*%
D10*
%TO.C,D59*%
X205950000Y-103600000D03*
D11*
X205950000Y-111220000D03*
%TD*%
D12*
%TO.C,C55*%
X318750000Y-116075000D03*
X317025000Y-116075000D03*
%TD*%
%TO.C,C64*%
X137450000Y-116100000D03*
X135725000Y-116100000D03*
%TD*%
D10*
%TO.C,D69*%
X158300000Y-122850000D03*
D11*
X158300000Y-130470000D03*
%TD*%
D10*
%TO.C,D25*%
X191700000Y-65550000D03*
D11*
X191700000Y-73170000D03*
%TD*%
D10*
%TO.C,D57*%
X167800000Y-103100000D03*
D11*
X167800000Y-110720000D03*
%TD*%
D10*
%TO.C,D14*%
X324975000Y-47525000D03*
D11*
X324975000Y-55145000D03*
%TD*%
D12*
%TO.C,C8*%
X196550000Y-59000000D03*
X194825000Y-59000000D03*
%TD*%
%TO.C,C56*%
X288150000Y-115950000D03*
X286425000Y-115950000D03*
%TD*%
%TO.C,C60*%
X211800000Y-116100000D03*
X210075000Y-116100000D03*
%TD*%
%TO.C,C17*%
X373487500Y-58875000D03*
X371762500Y-58875000D03*
%TD*%
D10*
%TO.C,D19*%
X77150000Y-65630000D03*
D11*
X77150000Y-73250000D03*
%TD*%
D21*
%TO.C,H5*%
X445050000Y-155850000D03*
%TD*%
D12*
%TO.C,C15*%
X330300000Y-58850000D03*
X328575000Y-58850000D03*
%TD*%
%TO.C,C83*%
X278700000Y-134975000D03*
X276975000Y-134975000D03*
%TD*%
D10*
%TO.C,D5*%
X153450000Y-46740000D03*
D11*
X153450000Y-54360000D03*
%TD*%
D12*
%TO.C,C24*%
X275650000Y-77800000D03*
X273925000Y-77800000D03*
%TD*%
%TO.C,C4*%
X121175000Y-58950000D03*
X119450000Y-58950000D03*
%TD*%
%TO.C,C57*%
X270700000Y-116000000D03*
X268975000Y-116000000D03*
%TD*%
D10*
%TO.C,D26*%
X210700000Y-65850000D03*
D11*
X210700000Y-73470000D03*
%TD*%
D10*
%TO.C,D78*%
X386700000Y-66650000D03*
D11*
X386700000Y-74270000D03*
%TD*%
D10*
%TO.C,D56*%
X148700000Y-103450000D03*
D11*
X148700000Y-111070000D03*
%TD*%
D10*
%TO.C,D81*%
X127450000Y-142100000D03*
D11*
X127450000Y-149720000D03*
%TD*%
D10*
%TO.C,D34*%
X405850000Y-63930000D03*
D11*
X405850000Y-71550000D03*
%TD*%
D10*
%TO.C,D29*%
X267800000Y-65850000D03*
D11*
X267800000Y-73470000D03*
%TD*%
D12*
%TO.C,C21*%
X354500000Y-77725000D03*
X352775000Y-77725000D03*
%TD*%
D10*
%TO.C,D73*%
X234450000Y-123200000D03*
D11*
X234450000Y-130820000D03*
%TD*%
D10*
%TO.C,D16*%
X367650000Y-142500000D03*
D11*
X367650000Y-150120000D03*
%TD*%
D10*
%TO.C,D83*%
X223150000Y-142100000D03*
D11*
X223150000Y-149720000D03*
%TD*%
D10*
%TO.C,D80*%
X104300000Y-142110000D03*
D11*
X104300000Y-149730000D03*
%TD*%
D12*
%TO.C,C22*%
X321225000Y-77775000D03*
X319500000Y-77775000D03*
%TD*%
%TO.C,C23*%
X294350000Y-77800000D03*
X292625000Y-77800000D03*
%TD*%
D10*
%TO.C,D4*%
X134450000Y-46640000D03*
D11*
X134450000Y-54260000D03*
%TD*%
D10*
%TO.C,D65*%
X341650000Y-102800000D03*
D11*
X341650000Y-110420000D03*
%TD*%
D10*
%TO.C,D28*%
X248750000Y-65700000D03*
D11*
X248750000Y-73320000D03*
%TD*%
D10*
%TO.C,D60*%
X224950000Y-103600000D03*
D11*
X224950000Y-111220000D03*
%TD*%
D12*
%TO.C,C43*%
X187650000Y-97025000D03*
X185925000Y-97025000D03*
%TD*%
%TO.C,C12*%
X273525000Y-58900000D03*
X271800000Y-58900000D03*
%TD*%
%TO.C,C65*%
X118450000Y-116100000D03*
X116725000Y-116100000D03*
%TD*%
D10*
%TO.C,D77*%
X337050000Y-123000000D03*
D11*
X337050000Y-130620000D03*
%TD*%
D12*
%TO.C,C95*%
X304575000Y-153875000D03*
X302850000Y-153875000D03*
%TD*%
%TO.C,C26*%
X237850000Y-77850000D03*
X236125000Y-77850000D03*
%TD*%
D10*
%TO.C,D52*%
X367850000Y-46330000D03*
D11*
X367850000Y-53950000D03*
%TD*%
D10*
%TO.C,D67*%
X120050000Y-122900000D03*
D11*
X120050000Y-130520000D03*
%TD*%
D10*
%TO.C,D49*%
X340850000Y-85100000D03*
D11*
X340850000Y-92720000D03*
%TD*%
D10*
%TO.C,D90*%
X367550000Y-66550000D03*
D11*
X367550000Y-74170000D03*
%TD*%
D10*
%TO.C,D31*%
X306600000Y-65700000D03*
D11*
X306600000Y-73320000D03*
%TD*%
D10*
%TO.C,D7*%
X191500000Y-46850000D03*
D11*
X191500000Y-54470000D03*
%TD*%
D12*
%TO.C,C27*%
X216075000Y-77885000D03*
X214350000Y-77885000D03*
%TD*%
%TO.C,C35*%
X64225000Y-77760000D03*
X62500000Y-77760000D03*
%TD*%
D10*
%TO.C,D72*%
X215500000Y-123030000D03*
D11*
X215500000Y-130650000D03*
%TD*%
D12*
%TO.C,C30*%
X161800000Y-77950000D03*
X160075000Y-77950000D03*
%TD*%
%TO.C,C40*%
X130550000Y-97000000D03*
X128825000Y-97000000D03*
%TD*%
D10*
%TO.C,D30*%
X286900000Y-65900000D03*
D11*
X286900000Y-73520000D03*
%TD*%
D22*
%TO.C,U1*%
X442800000Y-109890000D03*
D23*
X442800000Y-112430000D03*
X442800000Y-114970000D03*
X442800000Y-117510000D03*
D24*
X442300000Y-102700000D03*
X442300000Y-124700000D03*
X420300000Y-124700000D03*
X420300000Y-102700000D03*
%TD*%
D10*
%TO.C,D50*%
X405900000Y-142650000D03*
D11*
X405900000Y-150270000D03*
%TD*%
D12*
%TO.C,C63*%
X154875000Y-116000000D03*
X153150000Y-116000000D03*
%TD*%
%TO.C,C16*%
X354562500Y-58875000D03*
X352837500Y-58875000D03*
%TD*%
%TO.C,C51*%
X354550000Y-96925000D03*
X352825000Y-96925000D03*
%TD*%
D10*
%TO.C,D74*%
X253600000Y-123200000D03*
D11*
X253600000Y-130820000D03*
%TD*%
D12*
%TO.C,C13*%
X292450000Y-59050000D03*
X290725000Y-59050000D03*
%TD*%
%TO.C,C58*%
X249725000Y-115975000D03*
X248000000Y-115975000D03*
%TD*%
D10*
%TO.C,D43*%
X220100000Y-84200000D03*
D11*
X220100000Y-91820000D03*
%TD*%
D10*
%TO.C,D24*%
X172600000Y-65600000D03*
D11*
X172600000Y-73220000D03*
%TD*%
D12*
%TO.C,C6*%
X159450000Y-59025000D03*
X157725000Y-59025000D03*
%TD*%
%TO.C,C96*%
X280950000Y-153875000D03*
X279225000Y-153875000D03*
%TD*%
%TO.C,C91*%
X392700000Y-154000000D03*
X390975000Y-154000000D03*
%TD*%
D10*
%TO.C,D53*%
X86050000Y-102300000D03*
D11*
X86050000Y-109920000D03*
%TD*%
D10*
%TO.C,D55*%
X129800000Y-103700000D03*
D11*
X129800000Y-111320000D03*
%TD*%
D10*
%TO.C,D12*%
X286800000Y-47275000D03*
D11*
X286800000Y-54895000D03*
%TD*%
D12*
%TO.C,C49*%
X302250000Y-97025000D03*
X300525000Y-97025000D03*
%TD*%
D10*
%TO.C,D41*%
X182000000Y-84250000D03*
D11*
X182000000Y-91870000D03*
%TD*%
D12*
%TO.C,C46*%
X244800000Y-97000000D03*
X243075000Y-97000000D03*
%TD*%
D10*
%TO.C,D36*%
X83150000Y-83630000D03*
D11*
X83150000Y-91250000D03*
%TD*%
D12*
%TO.C,C52*%
X373875000Y-96975000D03*
X372150000Y-96975000D03*
%TD*%
%TO.C,C76*%
X145150000Y-134825000D03*
X143425000Y-134825000D03*
%TD*%
%TO.C,C59*%
X232850000Y-116050000D03*
X231125000Y-116050000D03*
%TD*%
%TO.C,C31*%
X143750000Y-77950000D03*
X142025000Y-77950000D03*
%TD*%
%TO.C,C1*%
X63937500Y-58700000D03*
X62212500Y-58700000D03*
%TD*%
D10*
%TO.C,D11*%
X267725000Y-47350000D03*
D11*
X267725000Y-54970000D03*
%TD*%
D10*
%TO.C,D17*%
X386700000Y-85250000D03*
D11*
X386700000Y-92870000D03*
%TD*%
D12*
%TO.C,C84*%
X315675000Y-135250000D03*
X313950000Y-135250000D03*
%TD*%
D10*
%TO.C,D21*%
X115450000Y-65350000D03*
D11*
X115450000Y-72970000D03*
%TD*%
D12*
%TO.C,C99*%
X114575000Y-153950000D03*
X112850000Y-153950000D03*
%TD*%
%TO.C,C10*%
X235250000Y-59225000D03*
X233525000Y-59225000D03*
%TD*%
D10*
%TO.C,D79*%
X81100000Y-141750000D03*
D11*
X81100000Y-149370000D03*
%TD*%
D12*
%TO.C,C42*%
X169025000Y-97025000D03*
X167300000Y-97025000D03*
%TD*%
D10*
%TO.C,D22*%
X134550000Y-65500000D03*
D11*
X134550000Y-73120000D03*
%TD*%
D10*
%TO.C,D45*%
X258350000Y-84350000D03*
D11*
X258350000Y-91970000D03*
%TD*%
D10*
%TO.C,D180*%
X58950000Y-50980000D03*
D11*
X58950000Y-58600000D03*
%TD*%
D25*
%TO.C,SW18*%
X389500000Y-47850000D03*
D26*
X389500000Y-52850000D03*
X389500000Y-50350000D03*
D21*
X397000000Y-44750000D03*
X397000000Y-55950000D03*
D26*
X404000000Y-52850000D03*
X404000000Y-47850000D03*
%TD*%
D12*
%TO.C,C80*%
X221625000Y-135100000D03*
X219900000Y-135100000D03*
%TD*%
D10*
%TO.C,D84*%
X294700000Y-142450000D03*
D11*
X294700000Y-150070000D03*
%TD*%
D12*
%TO.C,C93*%
X354750000Y-153975000D03*
X353025000Y-153975000D03*
%TD*%
D10*
%TO.C,D61*%
X244100000Y-103550000D03*
D11*
X244100000Y-111170000D03*
%TD*%
D12*
%TO.C,C37*%
X68850000Y-97025000D03*
X67125000Y-97025000D03*
%TD*%
%TO.C,C45*%
X226200000Y-97000000D03*
X224475000Y-97000000D03*
%TD*%
%TO.C,C41*%
X150275000Y-97050000D03*
X148550000Y-97050000D03*
%TD*%
%TO.C,C61*%
X194800000Y-116200000D03*
X193075000Y-116200000D03*
%TD*%
%TO.C,C3*%
X102175000Y-58900000D03*
X100450000Y-58900000D03*
%TD*%
D10*
%TO.C,D62*%
X263050000Y-103650000D03*
D11*
X263050000Y-111270000D03*
%TD*%
D12*
%TO.C,C48*%
X283125000Y-97050000D03*
X281400000Y-97050000D03*
%TD*%
D10*
%TO.C,D70*%
X177050000Y-122950000D03*
D11*
X177050000Y-130570000D03*
%TD*%
D10*
%TO.C,D58*%
X186900000Y-103250000D03*
D11*
X186900000Y-110870000D03*
%TD*%
D12*
%TO.C,C9*%
X216250000Y-59000000D03*
X214525000Y-59000000D03*
%TD*%
D10*
%TO.C,D1*%
X77300000Y-47030000D03*
D11*
X77300000Y-54650000D03*
%TD*%
D12*
%TO.C,C82*%
X259100000Y-135050000D03*
X257375000Y-135050000D03*
%TD*%
%TO.C,C53*%
X392575000Y-97000000D03*
X390850000Y-97000000D03*
%TD*%
D10*
%TO.C,D85*%
X318850000Y-142550000D03*
D11*
X318850000Y-150170000D03*
%TD*%
D12*
%TO.C,C92*%
X373637500Y-154025000D03*
X371912500Y-154025000D03*
%TD*%
%TO.C,C81*%
X240525000Y-134850000D03*
X238800000Y-134850000D03*
%TD*%
D27*
%TO.C,SW76*%
X287865000Y-126540000D03*
D28*
X285325000Y-121460000D03*
D29*
X282785000Y-126540000D03*
D28*
X278975000Y-124000000D03*
D27*
X277705000Y-126540000D03*
%TD*%
%TO.C,SW7*%
X187765000Y-50390000D03*
D28*
X185225000Y-45310000D03*
D29*
X182685000Y-50390000D03*
D28*
X178875000Y-47850000D03*
D27*
X177605000Y-50390000D03*
%TD*%
%TO.C,SW23*%
X149615000Y-69440000D03*
D28*
X147075000Y-64360000D03*
D29*
X144535000Y-69440000D03*
D28*
X140725000Y-66900000D03*
D27*
X139455000Y-69440000D03*
%TD*%
D30*
%TO.C,SW66*%
X92198000Y-133575000D03*
D29*
X92198000Y-118335000D03*
D27*
X85340000Y-126590000D03*
D28*
X82800000Y-121510000D03*
D29*
X80260000Y-126590000D03*
D28*
X76450000Y-124050000D03*
D27*
X75180000Y-126590000D03*
D30*
X68322000Y-133575000D03*
D29*
X68322000Y-118335000D03*
%TD*%
D27*
%TO.C,SW52*%
X363915000Y-50090000D03*
D28*
X361375000Y-45010000D03*
D29*
X358835000Y-50090000D03*
D28*
X355025000Y-47550000D03*
D27*
X353755000Y-50090000D03*
%TD*%
%TO.C,SW40*%
X159265000Y-88490000D03*
D28*
X156725000Y-83410000D03*
D29*
X154185000Y-88490000D03*
D28*
X150375000Y-85950000D03*
D27*
X149105000Y-88490000D03*
%TD*%
%TO.C,SW33*%
X382888000Y-145630000D03*
D28*
X380348000Y-140550000D03*
D29*
X377808000Y-145630000D03*
D28*
X373998000Y-143090000D03*
D27*
X372728000Y-145630000D03*
%TD*%
%TO.C,SW28*%
X244965000Y-69440000D03*
D28*
X242425000Y-64360000D03*
D29*
X239885000Y-69440000D03*
D28*
X236075000Y-66900000D03*
D27*
X234805000Y-69440000D03*
%TD*%
%TO.C,SW57*%
X163965000Y-107490000D03*
D28*
X161425000Y-102410000D03*
D29*
X158885000Y-107490000D03*
D28*
X155075000Y-104950000D03*
D27*
X153805000Y-107490000D03*
%TD*%
%TO.C,SW3*%
X111570000Y-50380000D03*
D28*
X109030000Y-45300000D03*
D29*
X106490000Y-50380000D03*
D28*
X102680000Y-47840000D03*
D27*
X101410000Y-50380000D03*
%TD*%
%TO.C,SW35*%
X436225000Y-143505000D03*
D28*
X433685000Y-138425000D03*
D29*
X431145000Y-143505000D03*
D28*
X427335000Y-140965000D03*
D27*
X426065000Y-143505000D03*
%TD*%
%TO.C,SW74*%
X249740000Y-126530000D03*
D28*
X247200000Y-121450000D03*
D29*
X244660000Y-126530000D03*
D28*
X240850000Y-123990000D03*
D27*
X239580000Y-126530000D03*
%TD*%
%TO.C,SW90*%
X363988000Y-69080000D03*
D28*
X361448000Y-64000000D03*
D29*
X358908000Y-69080000D03*
D28*
X355098000Y-66540000D03*
D27*
X353828000Y-69080000D03*
%TD*%
%TO.C,SW24*%
X168688000Y-69430000D03*
D28*
X166148000Y-64350000D03*
D29*
X163608000Y-69430000D03*
D28*
X159798000Y-66890000D03*
D27*
X158528000Y-69430000D03*
%TD*%
%TO.C,SW11*%
X264015000Y-50390000D03*
D28*
X261475000Y-45310000D03*
D29*
X258935000Y-50390000D03*
D28*
X255125000Y-47850000D03*
D27*
X253855000Y-50390000D03*
%TD*%
%TO.C,SW29*%
X264040000Y-69430000D03*
D28*
X261500000Y-64350000D03*
D29*
X258960000Y-69430000D03*
D28*
X255150000Y-66890000D03*
D27*
X253880000Y-69430000D03*
%TD*%
%TO.C,SW17*%
X382965000Y-88140000D03*
D28*
X380425000Y-83060000D03*
D29*
X377885000Y-88140000D03*
D28*
X374075000Y-85600000D03*
D27*
X372805000Y-88140000D03*
%TD*%
%TO.C,SW10*%
X244965000Y-50390000D03*
D28*
X242425000Y-45310000D03*
D29*
X239885000Y-50390000D03*
D28*
X236075000Y-47850000D03*
D27*
X234805000Y-50390000D03*
%TD*%
%TO.C,SW25*%
X187740000Y-69430000D03*
D28*
X185200000Y-64350000D03*
D29*
X182660000Y-69430000D03*
D28*
X178850000Y-66890000D03*
D27*
X177580000Y-69430000D03*
%TD*%
%TO.C,SW12*%
X283015000Y-50390000D03*
D28*
X280475000Y-45310000D03*
D29*
X277935000Y-50390000D03*
D28*
X274125000Y-47850000D03*
D27*
X272855000Y-50390000D03*
%TD*%
%TO.C,SW14*%
X321115000Y-50390000D03*
D28*
X318575000Y-45310000D03*
D29*
X316035000Y-50390000D03*
D28*
X312225000Y-47850000D03*
D27*
X310955000Y-50390000D03*
%TD*%
%TO.C,SW5*%
X149665000Y-50390000D03*
D28*
X147125000Y-45310000D03*
D29*
X144585000Y-50390000D03*
D28*
X140775000Y-47850000D03*
D27*
X139505000Y-50390000D03*
%TD*%
%TO.C,SW43*%
X216415000Y-88490000D03*
D28*
X213875000Y-83410000D03*
D29*
X211335000Y-88490000D03*
D28*
X207525000Y-85950000D03*
D27*
X206255000Y-88490000D03*
%TD*%
%TO.C,SW80*%
X99615000Y-145640000D03*
D28*
X97075000Y-140560000D03*
D29*
X94535000Y-145640000D03*
D28*
X90725000Y-143100000D03*
D27*
X89455000Y-145640000D03*
%TD*%
%TO.C,SW85*%
X313999000Y-145640000D03*
D28*
X311459000Y-140560000D03*
D29*
X308919000Y-145640000D03*
D28*
X305109000Y-143100000D03*
D27*
X303839000Y-145640000D03*
%TD*%
%TO.C,SW41*%
X178315000Y-88490000D03*
D28*
X175775000Y-83410000D03*
D29*
X173235000Y-88490000D03*
D28*
X169425000Y-85950000D03*
D27*
X168155000Y-88490000D03*
%TD*%
%TO.C,SW56*%
X144930000Y-107500000D03*
D28*
X142390000Y-102420000D03*
D29*
X139850000Y-107500000D03*
D28*
X136040000Y-104960000D03*
D27*
X134770000Y-107500000D03*
%TD*%
%TO.C,SW38*%
X121165000Y-88490000D03*
D28*
X118625000Y-83410000D03*
D29*
X116085000Y-88490000D03*
D28*
X112275000Y-85950000D03*
D27*
X111005000Y-88490000D03*
%TD*%
%TO.C,SW16*%
X363865000Y-145690000D03*
D28*
X361325000Y-140610000D03*
D29*
X358785000Y-145690000D03*
D28*
X354975000Y-143150000D03*
D27*
X353705000Y-145690000D03*
%TD*%
%TO.C,SW73*%
X230690000Y-126590000D03*
D28*
X228150000Y-121510000D03*
D29*
X225610000Y-126590000D03*
D28*
X221800000Y-124050000D03*
D27*
X220530000Y-126590000D03*
%TD*%
%TO.C,SW26*%
X206765000Y-69440000D03*
D28*
X204225000Y-64360000D03*
D29*
X201685000Y-69440000D03*
D28*
X197875000Y-66900000D03*
D27*
X196605000Y-69440000D03*
%TD*%
%TO.C,SW75*%
X268838000Y-126580000D03*
D28*
X266298000Y-121500000D03*
D29*
X263758000Y-126580000D03*
D28*
X259948000Y-124040000D03*
D27*
X258678000Y-126580000D03*
%TD*%
%TO.C,SW72*%
X211665000Y-126590000D03*
D28*
X209125000Y-121510000D03*
D29*
X206585000Y-126590000D03*
D28*
X202775000Y-124050000D03*
D27*
X201505000Y-126590000D03*
%TD*%
D30*
%TO.C,SW77*%
X330388000Y-133585000D03*
D29*
X330388000Y-118345000D03*
D27*
X323530000Y-126600000D03*
D28*
X320990000Y-121520000D03*
D29*
X318450000Y-126600000D03*
D28*
X314640000Y-124060000D03*
D27*
X313370000Y-126600000D03*
D30*
X306512000Y-133585000D03*
D29*
X306512000Y-118345000D03*
%TD*%
D27*
%TO.C,SW49*%
X335400000Y-88500000D03*
D28*
X332860000Y-83420000D03*
D29*
X330320000Y-88500000D03*
D28*
X326510000Y-85960000D03*
D27*
X325240000Y-88500000D03*
%TD*%
%TO.C,SW9*%
X225915000Y-50390000D03*
D28*
X223375000Y-45310000D03*
D29*
X220835000Y-50390000D03*
D28*
X217025000Y-47850000D03*
D27*
X215755000Y-50390000D03*
%TD*%
%TO.C,SW69*%
X154415000Y-126590000D03*
D28*
X151875000Y-121510000D03*
D29*
X149335000Y-126590000D03*
D28*
X145525000Y-124050000D03*
D27*
X144255000Y-126590000D03*
%TD*%
%TO.C,SW4*%
X130615000Y-50390000D03*
D28*
X128075000Y-45310000D03*
D29*
X125535000Y-50390000D03*
D28*
X121725000Y-47850000D03*
D27*
X120455000Y-50390000D03*
%TD*%
%TO.C,SW2*%
X92530000Y-50400000D03*
D28*
X89990000Y-45320000D03*
D29*
X87450000Y-50400000D03*
D28*
X83640000Y-47860000D03*
D27*
X82370000Y-50400000D03*
%TD*%
%TO.C,SW19*%
X73465000Y-69490000D03*
D28*
X70925000Y-64410000D03*
D29*
X68385000Y-69490000D03*
D28*
X64575000Y-66950000D03*
D27*
X63305000Y-69490000D03*
%TD*%
%TO.C,SW84*%
X290215000Y-145690000D03*
D28*
X287675000Y-140610000D03*
D29*
X285135000Y-145690000D03*
D28*
X281325000Y-143150000D03*
D27*
X280055000Y-145690000D03*
%TD*%
%TO.C,SW30*%
X283005000Y-69384800D03*
D28*
X280465000Y-64304800D03*
D29*
X277925000Y-69384800D03*
D28*
X274115000Y-66844800D03*
D27*
X272845000Y-69384800D03*
%TD*%
%TO.C,SW50*%
X401910000Y-145600000D03*
D28*
X399370000Y-140520000D03*
D29*
X396830000Y-145600000D03*
D28*
X393020000Y-143060000D03*
D27*
X391750000Y-145600000D03*
%TD*%
%TO.C,SW86*%
X337815000Y-145640000D03*
D28*
X335275000Y-140560000D03*
D29*
X332735000Y-145640000D03*
D28*
X328925000Y-143100000D03*
D27*
X327655000Y-145640000D03*
%TD*%
%TO.C,SW68*%
X135365000Y-126590000D03*
D28*
X132825000Y-121510000D03*
D29*
X130285000Y-126590000D03*
D28*
X126475000Y-124050000D03*
D27*
X125205000Y-126590000D03*
%TD*%
%TO.C,SW55*%
X125865000Y-107540000D03*
D28*
X123325000Y-102460000D03*
D29*
X120785000Y-107540000D03*
D28*
X116975000Y-105000000D03*
D27*
X115705000Y-107540000D03*
%TD*%
%TO.C,SW37*%
X102065000Y-88490000D03*
D28*
X99525000Y-83410000D03*
D29*
X96985000Y-88490000D03*
D28*
X93175000Y-85950000D03*
D27*
X91905000Y-88490000D03*
%TD*%
%TO.C,SW6*%
X168715000Y-50390000D03*
D28*
X166175000Y-45310000D03*
D29*
X163635000Y-50390000D03*
D28*
X159825000Y-47850000D03*
D27*
X158555000Y-50390000D03*
%TD*%
%TO.C,SW34*%
X402015000Y-69090000D03*
D28*
X399475000Y-64010000D03*
D29*
X396935000Y-69090000D03*
D28*
X393125000Y-66550000D03*
D27*
X391855000Y-69090000D03*
%TD*%
%TO.C,SW67*%
X116290000Y-126590000D03*
D28*
X113750000Y-121510000D03*
D29*
X111210000Y-126590000D03*
D28*
X107400000Y-124050000D03*
D27*
X106130000Y-126590000D03*
%TD*%
%TO.C,SW64*%
X297515000Y-107590000D03*
D28*
X294975000Y-102510000D03*
D29*
X292435000Y-107590000D03*
D28*
X288625000Y-105050000D03*
D27*
X287355000Y-107590000D03*
%TD*%
%TO.C,SW79*%
X75865000Y-145690000D03*
D28*
X73325000Y-140610000D03*
D29*
X70785000Y-145690000D03*
D28*
X66975000Y-143150000D03*
D27*
X65705000Y-145690000D03*
%TD*%
D30*
%TO.C,SW83*%
X263685000Y-152575000D03*
D29*
X263685000Y-137335000D03*
D27*
X218765000Y-145590000D03*
D28*
X216225000Y-140510000D03*
D29*
X213685000Y-145590000D03*
D28*
X209875000Y-143050000D03*
D27*
X208605000Y-145590000D03*
D30*
X163685000Y-152575000D03*
D29*
X163685000Y-137335000D03*
%TD*%
D27*
%TO.C,SW45*%
X254538000Y-88480000D03*
D28*
X251998000Y-83400000D03*
D29*
X249458000Y-88480000D03*
D28*
X245648000Y-85940000D03*
D27*
X244378000Y-88480000D03*
%TD*%
%TO.C,SW89*%
X340155000Y-50384800D03*
D28*
X337615000Y-45304800D03*
D29*
X335075000Y-50384800D03*
D28*
X331265000Y-47844800D03*
D27*
X329995000Y-50384800D03*
%TD*%
%TO.C,SW31*%
X302005000Y-69384800D03*
D28*
X299465000Y-64304800D03*
D29*
X296925000Y-69384800D03*
D28*
X293115000Y-66844800D03*
D27*
X291845000Y-69384800D03*
%TD*%
%TO.C,SW87*%
X382890000Y-126680000D03*
D28*
X380350000Y-121600000D03*
D29*
X377810000Y-126680000D03*
D28*
X374000000Y-124140000D03*
D27*
X372730000Y-126680000D03*
%TD*%
%TO.C,SW88*%
X383000000Y-50150000D03*
D28*
X380460000Y-45070000D03*
D29*
X377920000Y-50150000D03*
D28*
X374110000Y-47610000D03*
D27*
X372840000Y-50150000D03*
%TD*%
%TO.C,SW54*%
X106840000Y-107540000D03*
D28*
X104300000Y-102460000D03*
D29*
X101760000Y-107540000D03*
D28*
X97950000Y-105000000D03*
D27*
X96680000Y-107540000D03*
%TD*%
%TO.C,SW39*%
X140215000Y-88490000D03*
D28*
X137675000Y-83410000D03*
D29*
X135135000Y-88490000D03*
D28*
X131325000Y-85950000D03*
D27*
X130055000Y-88490000D03*
%TD*%
%TO.C,SW70*%
X173465000Y-126590000D03*
D28*
X170925000Y-121510000D03*
D29*
X168385000Y-126590000D03*
D28*
X164575000Y-124050000D03*
D27*
X163305000Y-126590000D03*
%TD*%
%TO.C,SW81*%
X123565000Y-145690000D03*
D28*
X121025000Y-140610000D03*
D29*
X118485000Y-145690000D03*
D28*
X114675000Y-143150000D03*
D27*
X113405000Y-145690000D03*
%TD*%
%TO.C,SW1*%
X73460000Y-50400000D03*
D28*
X70920000Y-45320000D03*
D29*
X68380000Y-50400000D03*
D28*
X64570000Y-47860000D03*
D27*
X63300000Y-50400000D03*
%TD*%
%TO.C,SW60*%
X221165000Y-107490000D03*
D28*
X218625000Y-102410000D03*
D29*
X216085000Y-107490000D03*
D28*
X212275000Y-104950000D03*
D27*
X211005000Y-107490000D03*
%TD*%
%TO.C,SW62*%
X259365000Y-107540000D03*
D28*
X256825000Y-102460000D03*
D29*
X254285000Y-107540000D03*
D28*
X250475000Y-105000000D03*
D27*
X249205000Y-107540000D03*
%TD*%
%TO.C,SW71*%
X192565000Y-126540000D03*
D28*
X190025000Y-121460000D03*
D29*
X187485000Y-126540000D03*
D28*
X183675000Y-124000000D03*
D27*
X182405000Y-126540000D03*
%TD*%
%TO.C,SW63*%
X278365000Y-107540000D03*
D28*
X275825000Y-102460000D03*
D29*
X273285000Y-107540000D03*
D28*
X269475000Y-105000000D03*
D27*
X268205000Y-107540000D03*
%TD*%
D30*
%TO.C,SW65*%
X335308000Y-114635000D03*
D29*
X335308000Y-99395000D03*
D27*
X328450000Y-107650000D03*
D28*
X325910000Y-102570000D03*
D29*
X323370000Y-107650000D03*
D28*
X319560000Y-105110000D03*
D27*
X318290000Y-107650000D03*
D30*
X311432000Y-114635000D03*
D29*
X311432000Y-99395000D03*
%TD*%
D27*
%TO.C,SW8*%
X206815000Y-50400000D03*
D28*
X204275000Y-45320000D03*
D29*
X201735000Y-50400000D03*
D28*
X197925000Y-47860000D03*
D27*
X196655000Y-50400000D03*
%TD*%
%TO.C,SW22*%
X130600000Y-69430000D03*
D28*
X128060000Y-64350000D03*
D29*
X125520000Y-69430000D03*
D28*
X121710000Y-66890000D03*
D27*
X120440000Y-69430000D03*
%TD*%
%TO.C,SW53*%
X80615000Y-107540000D03*
D28*
X78075000Y-102460000D03*
D29*
X75535000Y-107540000D03*
D28*
X71725000Y-105000000D03*
D27*
X70455000Y-107540000D03*
%TD*%
%TO.C,SW78*%
X383030000Y-69100000D03*
D28*
X380490000Y-64020000D03*
D29*
X377950000Y-69100000D03*
D28*
X374140000Y-66560000D03*
D27*
X372870000Y-69100000D03*
%TD*%
%TO.C,SW47*%
X292615000Y-88490000D03*
D28*
X290075000Y-83410000D03*
D29*
X287535000Y-88490000D03*
D28*
X283725000Y-85950000D03*
D27*
X282455000Y-88490000D03*
%TD*%
%TO.C,SW44*%
X235465000Y-88490000D03*
D28*
X232925000Y-83410000D03*
D29*
X230385000Y-88490000D03*
D28*
X226575000Y-85950000D03*
D27*
X225305000Y-88490000D03*
%TD*%
%TO.C,SW27*%
X225838000Y-69450000D03*
D28*
X223298000Y-64370000D03*
D29*
X220758000Y-69450000D03*
D28*
X216948000Y-66910000D03*
D27*
X215678000Y-69450000D03*
%TD*%
%TO.C,SW42*%
X197365000Y-88490000D03*
D28*
X194825000Y-83410000D03*
D29*
X192285000Y-88490000D03*
D28*
X188475000Y-85950000D03*
D27*
X187205000Y-88490000D03*
%TD*%
%TO.C,SW51*%
X402015000Y-88140000D03*
D28*
X399475000Y-83060000D03*
D29*
X396935000Y-88140000D03*
D28*
X393125000Y-85600000D03*
D27*
X391855000Y-88140000D03*
%TD*%
%TO.C,SW20*%
X92510000Y-69450000D03*
D28*
X89970000Y-64370000D03*
D29*
X87430000Y-69450000D03*
D28*
X83620000Y-66910000D03*
D27*
X82350000Y-69450000D03*
%TD*%
%TO.C,SW15*%
X363938000Y-88130000D03*
D28*
X361398000Y-83050000D03*
D29*
X358858000Y-88130000D03*
D28*
X355048000Y-85590000D03*
D27*
X353778000Y-88130000D03*
%TD*%
%TO.C,SW46*%
X273515000Y-88490000D03*
D28*
X270975000Y-83410000D03*
D29*
X268435000Y-88490000D03*
D28*
X264625000Y-85950000D03*
D27*
X263355000Y-88490000D03*
%TD*%
%TO.C,SW58*%
X183115000Y-107490000D03*
D28*
X180575000Y-102410000D03*
D29*
X178035000Y-107490000D03*
D28*
X174225000Y-104950000D03*
D27*
X172955000Y-107490000D03*
%TD*%
%TO.C,SW82*%
X147288000Y-145680000D03*
D28*
X144748000Y-140600000D03*
D29*
X142208000Y-145680000D03*
D28*
X138398000Y-143140000D03*
D27*
X137128000Y-145680000D03*
%TD*%
%TO.C,SW13*%
X302065000Y-50340000D03*
D28*
X299525000Y-45260000D03*
D29*
X296985000Y-50340000D03*
D28*
X293175000Y-47800000D03*
D27*
X291905000Y-50340000D03*
%TD*%
D30*
%TO.C,SW32*%
X337508000Y-76335000D03*
D29*
X337508000Y-61095000D03*
D27*
X330650000Y-69350000D03*
D28*
X328110000Y-64270000D03*
D29*
X325570000Y-69350000D03*
D28*
X321760000Y-66810000D03*
D27*
X320490000Y-69350000D03*
D30*
X313632000Y-76335000D03*
D29*
X313632000Y-61095000D03*
%TD*%
D27*
%TO.C,SW36*%
X78220000Y-88540000D03*
D28*
X75680000Y-83460000D03*
D29*
X73140000Y-88540000D03*
D28*
X69330000Y-86000000D03*
D27*
X68060000Y-88540000D03*
%TD*%
%TO.C,SW61*%
X240265000Y-107490000D03*
D28*
X237725000Y-102410000D03*
D29*
X235185000Y-107490000D03*
D28*
X231375000Y-104950000D03*
D27*
X230105000Y-107490000D03*
%TD*%
%TO.C,SW48*%
X311565000Y-88490000D03*
D28*
X309025000Y-83410000D03*
D29*
X306485000Y-88490000D03*
D28*
X302675000Y-85950000D03*
D27*
X301405000Y-88490000D03*
%TD*%
%TO.C,SW21*%
X111615000Y-69440000D03*
D28*
X109075000Y-64360000D03*
D29*
X106535000Y-69440000D03*
D28*
X102725000Y-66900000D03*
D27*
X101455000Y-69440000D03*
%TD*%
%TO.C,SW59*%
X202165000Y-107490000D03*
D28*
X199625000Y-102410000D03*
D29*
X197085000Y-107490000D03*
D28*
X193275000Y-104950000D03*
D27*
X192005000Y-107490000D03*
%TD*%
M02*
