%TF.GenerationSoftware,KiCad,Pcbnew,9.0.6*%
%TF.CreationDate,2026-06-20T19:39:24+05:30*%
%TF.ProjectId,Mechanical LP Keyboard,4d656368-616e-4696-9361-6c204c50204b,rev?*%
%TF.SameCoordinates,Original*%
%TF.FileFunction,Paste,Top*%
%TF.FilePolarity,Positive*%
%FSLAX46Y46*%
G04 Gerber Fmt 4.6, Leading zero omitted, Abs format (unit mm)*
G04 Created by KiCad (PCBNEW 9.0.6) date 2026-06-20 19:39:24*
%MOMM*%
%LPD*%
G01*
G04 APERTURE LIST*
G04 Aperture macros list*
%AMRoundRect*
0 Rectangle with rounded corners*
0 $1 Rounding radius*
0 $2 $3 $4 $5 $6 $7 $8 $9 X,Y pos of 4 corners*
0 Add a 4 corners polygon primitive as box body*
4,1,4,$2,$3,$4,$5,$6,$7,$8,$9,$2,$3,0*
0 Add four circle primitives for the rounded corners*
1,1,$1+$1,$2,$3*
1,1,$1+$1,$4,$5*
1,1,$1+$1,$6,$7*
1,1,$1+$1,$8,$9*
0 Add four rect primitives between the rounded corners*
20,1,$1+$1,$2,$3,$4,$5,0*
20,1,$1+$1,$4,$5,$6,$7,0*
20,1,$1+$1,$6,$7,$8,$9,0*
20,1,$1+$1,$8,$9,$2,$3,0*%
G04 Aperture macros list end*
%ADD10RoundRect,0.237500X0.300000X0.237500X-0.300000X0.237500X-0.300000X-0.237500X0.300000X-0.237500X0*%
G04 APERTURE END LIST*
D10*
%TO.C,C77*%
X168450000Y-135050000D03*
X166725000Y-135050000D03*
%TD*%
%TO.C,C11*%
X254650000Y-59100000D03*
X252925000Y-59100000D03*
%TD*%
%TO.C,C18*%
X391650000Y-60375000D03*
X389925000Y-60375000D03*
%TD*%
%TO.C,C39*%
X111575000Y-96875000D03*
X109850000Y-96875000D03*
%TD*%
%TO.C,C7*%
X178200000Y-59100000D03*
X176475000Y-59100000D03*
%TD*%
%TO.C,C73*%
X75975000Y-135160000D03*
X74250000Y-135160000D03*
%TD*%
%TO.C,C19*%
X392462500Y-77725000D03*
X390737500Y-77725000D03*
%TD*%
%TO.C,C62*%
X175700000Y-116025000D03*
X173975000Y-116025000D03*
%TD*%
%TO.C,C32*%
X123500000Y-77700000D03*
X121775000Y-77700000D03*
%TD*%
%TO.C,C85*%
X374050000Y-135150000D03*
X372325000Y-135150000D03*
%TD*%
%TO.C,C36*%
X66250000Y-154100000D03*
X64525000Y-154100000D03*
%TD*%
%TO.C,C25*%
X256650000Y-77750000D03*
X254925000Y-77750000D03*
%TD*%
%TO.C,C14*%
X311700000Y-58975000D03*
X309975000Y-58975000D03*
%TD*%
%TO.C,C33*%
X101925000Y-77910000D03*
X100200000Y-77910000D03*
%TD*%
%TO.C,C5*%
X140250000Y-59000000D03*
X138525000Y-59000000D03*
%TD*%
%TO.C,C20*%
X373475000Y-78000000D03*
X371750000Y-78000000D03*
%TD*%
%TO.C,C38*%
X92550000Y-96910000D03*
X90825000Y-96910000D03*
%TD*%
%TO.C,C67*%
X72675000Y-115925000D03*
X70950000Y-115925000D03*
%TD*%
%TO.C,C97*%
X209400000Y-153925000D03*
X207675000Y-153925000D03*
%TD*%
%TO.C,C78*%
X183375000Y-135025000D03*
X181650000Y-135025000D03*
%TD*%
%TO.C,C28*%
X199950000Y-77950000D03*
X198225000Y-77950000D03*
%TD*%
%TO.C,C66*%
X97300000Y-115775000D03*
X95575000Y-115775000D03*
%TD*%
%TO.C,C29*%
X180900000Y-77900000D03*
X179175000Y-77900000D03*
%TD*%
%TO.C,C44*%
X206800000Y-96950000D03*
X205075000Y-96950000D03*
%TD*%
%TO.C,C98*%
X138075000Y-153925000D03*
X136350000Y-153925000D03*
%TD*%
%TO.C,C75*%
X126150000Y-134710000D03*
X124425000Y-134710000D03*
%TD*%
%TO.C,C79*%
X202925000Y-135075000D03*
X201200000Y-135075000D03*
%TD*%
%TO.C,C74*%
X106950000Y-134900000D03*
X105225000Y-134900000D03*
%TD*%
%TO.C,C2*%
X82887500Y-58925000D03*
X81162500Y-58925000D03*
%TD*%
%TO.C,C100*%
X90250000Y-153875000D03*
X88525000Y-153875000D03*
%TD*%
%TO.C,C34*%
X83000000Y-77750000D03*
X81275000Y-77750000D03*
%TD*%
%TO.C,C101*%
X426225000Y-151900000D03*
X424500000Y-151900000D03*
%TD*%
%TO.C,C94*%
X328375000Y-153900000D03*
X326650000Y-153900000D03*
%TD*%
%TO.C,C50*%
X326175000Y-97150000D03*
X324450000Y-97150000D03*
%TD*%
%TO.C,C47*%
X264075000Y-97075000D03*
X262350000Y-97075000D03*
%TD*%
%TO.C,C55*%
X318750000Y-116075000D03*
X317025000Y-116075000D03*
%TD*%
%TO.C,C64*%
X137450000Y-116100000D03*
X135725000Y-116100000D03*
%TD*%
%TO.C,C8*%
X196550000Y-59000000D03*
X194825000Y-59000000D03*
%TD*%
%TO.C,C56*%
X288150000Y-115950000D03*
X286425000Y-115950000D03*
%TD*%
%TO.C,C60*%
X211800000Y-116100000D03*
X210075000Y-116100000D03*
%TD*%
%TO.C,C17*%
X373487500Y-58875000D03*
X371762500Y-58875000D03*
%TD*%
%TO.C,C15*%
X330300000Y-58850000D03*
X328575000Y-58850000D03*
%TD*%
%TO.C,C83*%
X278700000Y-134975000D03*
X276975000Y-134975000D03*
%TD*%
%TO.C,C24*%
X275650000Y-77800000D03*
X273925000Y-77800000D03*
%TD*%
%TO.C,C4*%
X121175000Y-58950000D03*
X119450000Y-58950000D03*
%TD*%
%TO.C,C57*%
X270700000Y-116000000D03*
X268975000Y-116000000D03*
%TD*%
%TO.C,C21*%
X354500000Y-77725000D03*
X352775000Y-77725000D03*
%TD*%
%TO.C,C22*%
X321225000Y-77775000D03*
X319500000Y-77775000D03*
%TD*%
%TO.C,C23*%
X294350000Y-77800000D03*
X292625000Y-77800000D03*
%TD*%
%TO.C,C43*%
X187650000Y-97025000D03*
X185925000Y-97025000D03*
%TD*%
%TO.C,C12*%
X273525000Y-58900000D03*
X271800000Y-58900000D03*
%TD*%
%TO.C,C65*%
X118450000Y-116100000D03*
X116725000Y-116100000D03*
%TD*%
%TO.C,C95*%
X304575000Y-153875000D03*
X302850000Y-153875000D03*
%TD*%
%TO.C,C26*%
X237850000Y-77850000D03*
X236125000Y-77850000D03*
%TD*%
%TO.C,C27*%
X216075000Y-77885000D03*
X214350000Y-77885000D03*
%TD*%
%TO.C,C35*%
X64225000Y-77760000D03*
X62500000Y-77760000D03*
%TD*%
%TO.C,C30*%
X161800000Y-77950000D03*
X160075000Y-77950000D03*
%TD*%
%TO.C,C40*%
X130550000Y-97000000D03*
X128825000Y-97000000D03*
%TD*%
%TO.C,C63*%
X154875000Y-116000000D03*
X153150000Y-116000000D03*
%TD*%
%TO.C,C16*%
X354562500Y-58875000D03*
X352837500Y-58875000D03*
%TD*%
%TO.C,C51*%
X354550000Y-96925000D03*
X352825000Y-96925000D03*
%TD*%
%TO.C,C13*%
X292450000Y-59050000D03*
X290725000Y-59050000D03*
%TD*%
%TO.C,C58*%
X249725000Y-115975000D03*
X248000000Y-115975000D03*
%TD*%
%TO.C,C6*%
X159450000Y-59025000D03*
X157725000Y-59025000D03*
%TD*%
%TO.C,C96*%
X280950000Y-153875000D03*
X279225000Y-153875000D03*
%TD*%
%TO.C,C91*%
X392700000Y-154000000D03*
X390975000Y-154000000D03*
%TD*%
%TO.C,C49*%
X302250000Y-97025000D03*
X300525000Y-97025000D03*
%TD*%
%TO.C,C46*%
X244800000Y-97000000D03*
X243075000Y-97000000D03*
%TD*%
%TO.C,C52*%
X373875000Y-96975000D03*
X372150000Y-96975000D03*
%TD*%
%TO.C,C76*%
X145150000Y-134825000D03*
X143425000Y-134825000D03*
%TD*%
%TO.C,C59*%
X232850000Y-116050000D03*
X231125000Y-116050000D03*
%TD*%
%TO.C,C31*%
X143750000Y-77950000D03*
X142025000Y-77950000D03*
%TD*%
%TO.C,C1*%
X63937500Y-58700000D03*
X62212500Y-58700000D03*
%TD*%
%TO.C,C84*%
X315675000Y-135250000D03*
X313950000Y-135250000D03*
%TD*%
%TO.C,C99*%
X114575000Y-153950000D03*
X112850000Y-153950000D03*
%TD*%
%TO.C,C10*%
X235250000Y-59225000D03*
X233525000Y-59225000D03*
%TD*%
%TO.C,C42*%
X169025000Y-97025000D03*
X167300000Y-97025000D03*
%TD*%
%TO.C,C80*%
X221625000Y-135100000D03*
X219900000Y-135100000D03*
%TD*%
%TO.C,C93*%
X354750000Y-153975000D03*
X353025000Y-153975000D03*
%TD*%
%TO.C,C37*%
X68850000Y-97025000D03*
X67125000Y-97025000D03*
%TD*%
%TO.C,C45*%
X226200000Y-97000000D03*
X224475000Y-97000000D03*
%TD*%
%TO.C,C41*%
X150275000Y-97050000D03*
X148550000Y-97050000D03*
%TD*%
%TO.C,C61*%
X194800000Y-116200000D03*
X193075000Y-116200000D03*
%TD*%
%TO.C,C3*%
X102175000Y-58900000D03*
X100450000Y-58900000D03*
%TD*%
%TO.C,C48*%
X283125000Y-97050000D03*
X281400000Y-97050000D03*
%TD*%
%TO.C,C9*%
X216250000Y-59000000D03*
X214525000Y-59000000D03*
%TD*%
%TO.C,C82*%
X259100000Y-135050000D03*
X257375000Y-135050000D03*
%TD*%
%TO.C,C53*%
X392575000Y-97000000D03*
X390850000Y-97000000D03*
%TD*%
%TO.C,C92*%
X373637500Y-154025000D03*
X371912500Y-154025000D03*
%TD*%
%TO.C,C81*%
X240525000Y-134850000D03*
X238800000Y-134850000D03*
%TD*%
M02*
